<?xml version="1.0" encoding="UTF-8" standalone="no"?>
<!DOCTYPE svg PUBLIC "-//W3C//DTD SVG 1.1//EN"
 "http://www.w3.org/Graphics/SVG/1.1/DTD/svg11.dtd">
<!-- Generated by graphviz version 2.40.1 (20161225.0304)
 -->
<!-- Title: graphname Pages: 1 -->
<svg width="381pt" height="548pt"
 viewBox="0.00 0.00 380.65 548.00" xmlns="http://www.w3.org/2000/svg" xmlns:xlink="http://www.w3.org/1999/xlink">
<g id="graph0" class="graph" transform="scale(1 1) rotate(0) translate(4 544)">
<title>graphname</title>
<polygon fill="#ffffff" stroke="transparent" points="-4,4 -4,-544 376.6523,-544 376.6523,4 -4,4"/>
<g id="clust1" class="cluster">
<title>cluster0</title>
<polygon fill="#fafafa" stroke="#fafafa" points="118.6523,-64 118.6523,-332 270.6523,-332 270.6523,-64 118.6523,-64"/>
</g>
<!-- concat -->
<g id="node1" class="node">
<title>concat</title>
<polygon fill="none" stroke="#000000" points="197.1257,-360.0493 198.7633,-360.1479 200.384,-360.2953 201.9811,-360.4913 203.5482,-360.7353 205.079,-361.0266 206.5674,-361.3645 208.0077,-361.7479 209.3944,-362.1759 210.7224,-362.6472 211.9867,-363.1606 213.1832,-363.7147 214.3077,-364.308 215.3567,-364.9388 216.3271,-365.6054 217.2163,-366.3059 218.022,-367.0385 218.7424,-367.8012 219.3765,-368.5918 219.9232,-369.4082 220.3824,-370.2481 220.754,-371.1093 221.0386,-371.9894 221.2371,-372.886 221.3508,-373.7965 221.3814,-374.7186 221.3309,-375.6497 221.2016,-376.5873 220.9961,-377.5287 220.7172,-378.4713 220.3681,-379.4127 219.9519,-380.3503 219.472,-381.2814 218.9319,-382.2035 218.3352,-383.114 217.6856,-384.0106 216.9865,-384.8907 216.2417,-385.7519 215.4548,-386.5918 214.6292,-387.4082 213.7683,-388.1988 212.8755,-388.9615 211.9539,-389.6941 211.0064,-390.3946 210.036,-391.0612 209.0453,-391.692 208.0367,-392.2853 207.0126,-392.8394 205.9751,-393.3528 204.926,-393.8241 203.8671,-394.2521 202.8,-394.6355 201.726,-394.9734 200.6464,-395.2647 199.5622,-395.5087 198.4746,-395.7047 197.3843,-395.8521 196.2922,-395.9507 195.199,-396 194.1055,-396 193.0123,-395.9507 191.9202,-395.8521 190.83,-395.7047 189.7423,-395.5087 188.6582,-395.2647 187.5786,-394.9734 186.5046,-394.6355 185.4375,-394.2521 184.3786,-393.8241 183.3295,-393.3528 182.2919,-392.8394 181.2678,-392.2853 180.2593,-391.692 179.2686,-391.0612 178.2981,-390.3946 177.3507,-389.6941 176.4291,-388.9615 175.5362,-388.1988 174.6754,-387.4082 173.8498,-386.5918 173.0628,-385.7519 172.318,-384.8907 171.619,-384.0106 170.9693,-383.114 170.3726,-382.2035 169.8326,-381.2814 169.3527,-380.3503 168.9365,-379.4127 168.5873,-378.4713 168.3085,-377.5287 168.103,-376.5873 167.9737,-375.6497 167.9232,-374.7186 167.9538,-373.7965 168.0675,-372.886 168.266,-371.9894 168.5506,-371.1093 168.9222,-370.2481 169.3813,-369.4082 169.9281,-368.5918 170.5621,-367.8012 171.2826,-367.0385 172.0883,-366.3059 172.9774,-365.6054 173.9479,-364.9388 174.9969,-364.308 176.1214,-363.7147 177.3178,-363.1606 178.5822,-362.6472 179.9101,-362.1759 181.2968,-361.7479 182.7371,-361.3645 184.2256,-361.0266 185.7564,-360.7353 187.3235,-360.4913 188.9206,-360.2953 190.5413,-360.1479 192.1789,-360.0493 193.8267,-360 195.4779,-360 197.1257,-360.0493"/>
<text text-anchor="middle" x="194.6523" y="-373.8" font-family="Times,serif" font-size="14.00" fill="#000000">concat</text>
</g>
<!-- Normalization -->
<g id="node4" class="node">
<title>Normalization</title>
<polygon fill="none" stroke="#000000" points="262.4742,-301.9946 249.0412,-317.2228 194.6523,-324 140.2633,-317.2228 126.8304,-301.9946 164.4687,-289.7826 224.8359,-289.7826 262.4742,-301.9946"/>
<text text-anchor="middle" x="194.6523" y="-301.8" font-family="Times,serif" font-size="14.00" fill="#000000">Normalization</text>
</g>
<!-- concat&#45;&gt;Normalization -->
<g id="edge8" class="edge">
<title>concat&#45;&gt;Normalization</title>
<path fill="none" stroke="#000000" d="M194.6523,-359.8314C194.6523,-352.131 194.6523,-342.9743 194.6523,-334.4166"/>
<polygon fill="#000000" stroke="#000000" points="198.1524,-334.4132 194.6523,-324.4133 191.1524,-334.4133 198.1524,-334.4132"/>
</g>
<!-- Clustering -->
<g id="node11" class="node">
<title>Clustering</title>
<ellipse fill="none" stroke="#000000" cx="61.6523" cy="-306" rx="46.9064" ry="18"/>
<text text-anchor="middle" x="61.6523" y="-301.8" font-family="Times,serif" font-size="14.00" fill="#000000">Clustering</text>
</g>
<!-- concat&#45;&gt;Clustering -->
<g id="edge7" class="edge">
<title>concat&#45;&gt;Clustering</title>
<path fill="none" stroke="#000000" d="M172.3911,-365.9488C152.1533,-354.993 121.9115,-338.6216 98.1424,-325.7541"/>
<polygon fill="#000000" stroke="#000000" points="99.5179,-322.5187 89.0575,-320.8359 96.1853,-328.6746 99.5179,-322.5187"/>
</g>
<!-- Generation -->
<g id="node2" class="node">
<title>Generation</title>
<ellipse fill="none" stroke="#000000" cx="194.6523" cy="-450" rx="49.286" ry="18"/>
<text text-anchor="middle" x="194.6523" y="-445.8" font-family="Times,serif" font-size="14.00" fill="#000000">Generation</text>
</g>
<!-- Generation&#45;&gt;concat -->
<g id="edge6" class="edge">
<title>Generation&#45;&gt;concat</title>
<path fill="none" stroke="#000000" d="M194.6523,-431.8314C194.6523,-424.131 194.6523,-414.9743 194.6523,-406.4166"/>
<polygon fill="#000000" stroke="#000000" points="198.1524,-406.4132 194.6523,-396.4133 191.1524,-406.4133 198.1524,-406.4132"/>
<text text-anchor="middle" x="156.3676" y="-416.9429" font-family="Times,serif" font-size="14.00" fill="#000000">df generated &#160;</text>
</g>
<!-- df -->
<g id="node3" class="node">
<title>df</title>
<polygon fill="none" stroke="#000000" points="221.6523,-540 167.6523,-540 167.6523,-504 221.6523,-504 221.6523,-540"/>
<text text-anchor="middle" x="194.6523" y="-517.8" font-family="Times,serif" font-size="14.00" fill="#000000">df</text>
</g>
<!-- df&#45;&gt;Generation -->
<g id="edge1" class="edge">
<title>df&#45;&gt;Generation</title>
<path fill="none" stroke="#000000" d="M194.6523,-503.8314C194.6523,-496.131 194.6523,-486.9743 194.6523,-478.4166"/>
<polygon fill="#000000" stroke="#000000" points="198.1524,-478.4132 194.6523,-468.4133 191.1524,-478.4133 198.1524,-478.4132"/>
</g>
<!-- grouped -->
<g id="node10" class="node">
<title>grouped</title>
<polygon fill="none" stroke="#000000" points="64.4974,-216.0493 66.3811,-216.1479 68.2453,-216.2953 70.0824,-216.4913 71.885,-216.7353 73.6458,-217.0266 75.3579,-217.3645 77.0147,-217.7479 78.6097,-218.1759 80.1372,-218.6472 81.5916,-219.1606 82.9678,-219.7147 84.2613,-220.308 85.468,-220.9388 86.5842,-221.6054 87.607,-222.3059 88.5337,-223.0385 89.3625,-223.8012 90.0918,-224.5918 90.7207,-225.4082 91.2489,-226.2481 91.6763,-227.1093 92.0037,-227.9894 92.232,-228.886 92.3628,-229.7965 92.398,-230.7186 92.3399,-231.6497 92.1911,-232.5873 91.9548,-233.5287 91.634,-234.4713 91.2324,-235.4127 90.7537,-236.3503 90.2017,-237.2814 89.5804,-238.2035 88.8941,-239.114 88.1468,-240.0106 87.3427,-240.8907 86.486,-241.7519 85.5808,-242.5918 84.6311,-243.4082 83.6409,-244.1988 82.6139,-244.9615 81.5538,-245.6941 80.464,-246.3946 79.3477,-247.0612 78.2081,-247.692 77.048,-248.2853 75.87,-248.8394 74.6766,-249.3528 73.4698,-249.8241 72.2518,-250.2521 71.0243,-250.6355 69.7889,-250.9734 68.5471,-251.2647 67.3001,-251.5087 66.049,-251.7047 64.7949,-251.8521 63.5386,-251.9507 62.2812,-252 61.0234,-252 59.7659,-251.9507 58.5097,-251.8521 57.2556,-251.7047 56.0045,-251.5087 54.7575,-251.2647 53.5156,-250.9734 52.2802,-250.6355 51.0527,-250.2521 49.8347,-249.8241 48.628,-249.3528 47.4345,-248.8394 46.2565,-248.2853 45.0964,-247.692 43.9568,-247.0612 42.8406,-246.3946 41.7508,-245.6941 40.6906,-244.9615 39.6636,-244.1988 38.6734,-243.4082 37.7238,-242.5918 36.8186,-241.7519 35.9619,-240.8907 35.1578,-240.0106 34.4105,-239.114 33.7241,-238.2035 33.1029,-237.2814 32.5509,-236.3503 32.0721,-235.4127 31.6705,-234.4713 31.3498,-233.5287 31.1134,-232.5873 30.9647,-231.6497 30.9066,-230.7186 30.9418,-229.7965 31.0726,-228.886 31.3009,-227.9894 31.6282,-227.1093 32.0557,-226.2481 32.5838,-225.4082 33.2128,-224.5918 33.9421,-223.8012 34.7708,-223.0385 35.6976,-222.3059 36.7203,-221.6054 37.8366,-220.9388 39.0432,-220.308 40.3367,-219.7147 41.713,-219.1606 43.1673,-218.6472 44.6948,-218.1759 46.2899,-217.7479 47.9466,-217.3645 49.6587,-217.0266 51.4196,-216.7353 53.2222,-216.4913 55.0593,-216.2953 56.9235,-216.1479 58.8072,-216.0493 60.7026,-216 62.602,-216 64.4974,-216.0493"/>
<text text-anchor="middle" x="61.6523" y="-229.8" font-family="Times,serif" font-size="14.00" fill="#000000">grouping</text>
</g>
<!-- df&#45;&gt;grouped -->
<g id="edge2" class="edge">
<title>df&#45;&gt;grouped</title>
<path fill="none" stroke="#000000" d="M167.6018,-505.3863C123.5829,-476.5349 38.1067,-412.4747 5.6523,-332 -1.6618,-313.8638 -1.9952,-305.9982 5.6523,-288 11.645,-273.8963 23.3259,-261.687 34.4757,-252.4633"/>
<polygon fill="#000000" stroke="#000000" points="36.6674,-255.1927 42.4117,-246.2902 32.3695,-249.6674 36.6674,-255.1927"/>
</g>
<!-- Selection -->
<g id="node5" class="node">
<title>Selection</title>
<polygon fill="none" stroke="#000000" points="242.6397,-229.9946 233.1352,-245.2228 194.6523,-252 156.1693,-245.2228 146.6648,-229.9946 173.2959,-217.7826 216.0087,-217.7826 242.6397,-229.9946"/>
<text text-anchor="middle" x="194.6523" y="-229.8" font-family="Times,serif" font-size="14.00" fill="#000000">Selection</text>
</g>
<!-- Normalization&#45;&gt;Selection -->
<g id="edge9" class="edge">
<title>Normalization&#45;&gt;Selection</title>
<path fill="none" stroke="#000000" d="M194.6523,-289.6621C194.6523,-281.5229 194.6523,-271.4494 194.6523,-262.1187"/>
<polygon fill="#000000" stroke="#000000" points="198.1524,-262.0423 194.6523,-252.0423 191.1524,-262.0424 198.1524,-262.0423"/>
<text text-anchor="middle" x="152.8608" y="-273.3552" font-family="Times,serif" font-size="14.00" fill="#000000">X normalized &#160;</text>
</g>
<!-- DataSplits -->
<g id="node6" class="node">
<title>DataSplits</title>
<polygon fill="none" stroke="#000000" points="246.8807,-157.9946 236.5362,-173.2228 194.6523,-180 152.7684,-173.2228 142.4239,-157.9946 171.4085,-145.7826 217.8961,-145.7826 246.8807,-157.9946"/>
<text text-anchor="middle" x="194.6523" y="-157.8" font-family="Times,serif" font-size="14.00" fill="#000000">DataSplits</text>
</g>
<!-- Selection&#45;&gt;DataSplits -->
<g id="edge10" class="edge">
<title>Selection&#45;&gt;DataSplits</title>
<path fill="none" stroke="#000000" d="M194.6523,-217.6621C194.6523,-209.5229 194.6523,-199.4494 194.6523,-190.1187"/>
<polygon fill="#000000" stroke="#000000" points="198.1524,-190.0423 194.6523,-180.0423 191.1524,-190.0424 198.1524,-190.0423"/>
<text text-anchor="middle" x="161.8056" y="-201.3552" font-family="Times,serif" font-size="14.00" fill="#000000">X selected &#160;</text>
</g>
<!-- Models -->
<g id="node7" class="node">
<title>Models</title>
<polygon fill="none" stroke="#000000" points="235.4814,-85.9946 227.3947,-101.2228 194.6523,-108 161.9098,-101.2228 153.8231,-85.9946 176.4816,-73.7826 212.823,-73.7826 235.4814,-85.9946"/>
<text text-anchor="middle" x="194.6523" y="-85.8" font-family="Times,serif" font-size="14.00" fill="#000000">Models</text>
</g>
<!-- DataSplits&#45;&gt;Models -->
<g id="edge13" class="edge">
<title>DataSplits&#45;&gt;Models</title>
<path fill="none" stroke="#b22222" d="M194.6523,-145.6621C194.6523,-137.5229 194.6523,-127.4494 194.6523,-118.1187"/>
<polygon fill="#b22222" stroke="#b22222" points="198.1524,-118.0423 194.6523,-108.0423 191.1524,-118.0424 198.1524,-118.0423"/>
<text text-anchor="middle" x="135.7607" y="-129.3552" font-family="Times,serif" font-size="14.00" fill="#b22222">X,y[test,train] array &#160;</text>
</g>
<!-- predictions -->
<g id="node12" class="node">
<title>predictions</title>
<polygon fill="none" stroke="#000000" points="233.8596,-36 155.445,-36 155.445,0 233.8596,0 233.8596,-36"/>
<text text-anchor="middle" x="194.6523" y="-13.8" font-family="Times,serif" font-size="14.00" fill="#000000">predictions</text>
</g>
<!-- Models&#45;&gt;predictions -->
<g id="edge14" class="edge">
<title>Models&#45;&gt;predictions</title>
<path fill="none" stroke="#b22222" d="M194.6523,-73.6621C194.6523,-65.5229 194.6523,-55.4494 194.6523,-46.1187"/>
<polygon fill="#b22222" stroke="#b22222" points="198.1524,-46.0423 194.6523,-36.0423 191.1524,-46.0424 198.1524,-46.0423"/>
<text text-anchor="middle" x="146.6469" y="-57.3552" font-family="Times,serif" font-size="14.00" fill="#b22222">prediction array &#160;</text>
</g>
<!-- X -->
<g id="node8" class="node">
<title>X</title>
<polygon fill="none" stroke="#000000" points="298.6523,-540 244.6523,-540 244.6523,-504 298.6523,-504 298.6523,-540"/>
<text text-anchor="middle" x="271.6523" y="-517.8" font-family="Times,serif" font-size="14.00" fill="#000000">X</text>
</g>
<!-- X&#45;&gt;concat -->
<g id="edge3" class="edge">
<title>X&#45;&gt;concat</title>
<path fill="none" stroke="#000000" d="M271.0238,-503.9683C269.6632,-484.9503 265.4634,-454.6592 252.6523,-432 244.6971,-417.9296 231.8282,-405.4007 220.2309,-395.9618"/>
<polygon fill="#000000" stroke="#000000" points="222.147,-393.0186 212.0996,-389.6571 217.8578,-398.5506 222.147,-393.0186"/>
</g>
<!-- y -->
<g id="node9" class="node">
<title>y</title>
<polygon fill="none" stroke="#000000" points="372.6523,-540 318.6523,-540 318.6523,-504 372.6523,-504 372.6523,-540"/>
<text text-anchor="middle" x="345.6523" y="-517.8" font-family="Times,serif" font-size="14.00" fill="#000000">y</text>
</g>
<!-- y&#45;&gt;Selection -->
<g id="edge4" class="edge">
<title>y&#45;&gt;Selection</title>
<path fill="none" stroke="#000000" d="M341.5054,-503.8243C330.1744,-455.242 297.7938,-323.6479 271.6523,-288 261.0176,-273.498 245.2808,-261.479 230.8006,-252.4908"/>
<polygon fill="#000000" stroke="#000000" points="232.3934,-249.3666 222.0039,-247.2909 228.8314,-255.3925 232.3934,-249.3666"/>
</g>
<!-- y&#45;&gt;DataSplits -->
<g id="edge5" class="edge">
<title>y&#45;&gt;DataSplits</title>
<path fill="none" stroke="#000000" d="M346.0667,-503.8157C346.6525,-476.5008 347.6523,-423.2544 347.6523,-378 347.6523,-378 347.6523,-378 347.6523,-306 347.6523,-244.5314 281.3571,-201.5916 236.0453,-179.4216"/>
<polygon fill="#000000" stroke="#000000" points="237.2618,-176.1251 226.7261,-175.0068 234.2649,-182.4511 237.2618,-176.1251"/>
</g>
<!-- grouped&#45;&gt;DataSplits -->
<g id="edge12" class="edge">
<title>grouped&#45;&gt;DataSplits</title>
<path fill="none" stroke="#000000" d="M85.7376,-220.9613C106.4883,-209.7279 136.6955,-193.3751 160.0368,-180.7392"/>
<polygon fill="#000000" stroke="#000000" points="161.8031,-183.763 168.931,-175.9243 158.4706,-177.6071 161.8031,-183.763"/>
</g>
<!-- Clustering&#45;&gt;grouped -->
<g id="edge11" class="edge">
<title>Clustering&#45;&gt;grouped</title>
<path fill="none" stroke="#000000" d="M61.6523,-287.8314C61.6523,-280.131 61.6523,-270.9743 61.6523,-262.4166"/>
<polygon fill="#000000" stroke="#000000" points="65.1524,-262.4132 61.6523,-252.4133 58.1524,-262.4133 65.1524,-262.4132"/>
</g>
</g>
</svg>
